<svg width="19" height="16" viewBox="0 0 19 16" fill="none" xmlns="http://www.w3.org/2000/svg">
<path d="M3.02686 2.1044C3.02686 1.40668 3.59247 0.841064 4.29019 0.841064L17.7367 0.841065C18.4344 0.841065 19 1.40668 19 2.1044C19 2.80212 18.4344 3.36773 17.7367 3.36773L4.29019 3.36773C3.59247 3.36773 3.02686 2.80212 3.02686 2.1044Z" fill="#4E4B66"/>
<path d="M0.470947 7.9999C0.470947 7.30219 1.03656 6.73657 1.73428 6.73657L17.7365 6.73657C18.4342 6.73657 18.9998 7.30219 18.9998 7.9999C18.9998 8.69762 18.4342 9.26324 17.7365 9.26324L1.73428 9.26324C1.03656 9.26324 0.470947 8.69762 0.470947 7.9999Z" fill="#4E4B66"/>
<path d="M5.5824 13.8954C5.5824 13.1977 6.14801 12.6321 6.84573 12.6321L17.7365 12.6321C18.4342 12.6321 18.9999 13.1977 18.9999 13.8954C18.9999 14.5931 18.4342 15.1587 17.7365 15.1587L6.84573 15.1587C6.14801 15.1587 5.5824 14.5931 5.5824 13.8954Z" fill="#4E4B66"/>
</svg>
